<svg width="130" height="40" viewBox="0 0 130 40" fill="none" xmlns="http://www.w3.org/2000/svg">
<g clip-path="url(#clip0_753_297)">
<path d="M9.07011 6.38672L0.386719 12.0251L9.07011 17.6636L17.7535 12.0251L9.07011 6.38672Z" fill="#82FF83"/>
<path d="M0.386719 12.0234V17.6619L9.07011 23.3003V17.6619L0.386719 12.0234Z" fill="#F3F3F3"/>
<path d="M17.7498 12.0234V17.6619L9.06641 23.3003V17.6619L17.7498 12.0234Z" fill="#CFCCCF"/>
<path d="M9.07011 6.38672L0.386719 12.0251L9.07011 17.6636L17.7535 12.0251L9.07011 6.38672Z" fill="#82FF83"/>
<path d="M0.386719 12.0234V17.6619L9.07011 23.3003V17.6619L0.386719 12.0234Z" fill="#F3F3F3"/>
<path d="M17.7498 12.0234V17.6619L9.06641 23.3003V17.6619L17.7498 12.0234Z" fill="#CFCCCF"/>
<path d="M9.06932 23.6828C8.996 23.6828 8.92267 23.6635 8.86092 23.6211L0.177527 17.9826C0.0694671 17.9132 0 17.7897 0 17.6585V12.02C0 11.8773 0.0771857 11.7499 0.200683 11.6804C0.32418 11.611 0.478551 11.6187 0.59433 11.6959L9.27772 17.3343C9.38578 17.4038 9.45525 17.5272 9.45525 17.6585V23.2969C9.45525 23.4397 9.37807 23.567 9.25457 23.6365C9.19668 23.6674 9.13493 23.6828 9.06932 23.6828ZM0.771857 17.4501L8.68339 22.5868V17.8707L0.771857 12.7302V17.4501Z" fill="#231F20"/>
<path d="M9.06562 23.6891C9.00387 23.6891 8.93826 23.6736 8.88037 23.6428C8.75687 23.5772 8.67969 23.4459 8.67969 23.3031V17.6647C8.67969 17.5335 8.7453 17.4139 8.85721 17.3406L17.5406 11.7021C17.6602 11.625 17.8108 11.6211 17.9343 11.6867C18.0578 11.7523 18.1349 11.8835 18.1349 12.0263V17.6647C18.1349 17.7959 18.0693 17.9156 17.9574 17.9889L9.27402 23.6273C9.20841 23.6698 9.13508 23.6891 9.06562 23.6891ZM9.45154 17.877V22.593L17.3631 17.4563V12.7364L9.45154 17.8731V17.877Z" fill="#231F20"/>
<path d="M9.06932 18.0477C8.99599 18.0477 8.92267 18.0284 8.86092 17.986L0.177527 12.3476C0.0694671 12.2781 0 12.1546 0 12.0234C0 11.8922 0.0656079 11.7725 0.177527 11.6992L8.86092 6.06078C8.98828 5.97974 9.15422 5.97974 9.28158 6.06078L17.965 11.6992C18.073 11.7687 18.1425 11.8922 18.1425 12.0234C18.1425 12.1546 18.0769 12.2742 17.965 12.3476L9.28158 17.986C9.21597 18.0284 9.14265 18.0477 9.07318 18.0477H9.06932ZM1.09604 12.0234L9.06932 17.2025L17.0426 12.0234L9.06932 6.84422L1.09604 12.0234Z" fill="#231F20"/>
<path d="M26.4373 6.38672L17.7539 12.0251L26.4373 17.6636L35.1207 12.0251L26.4373 6.38672Z" fill="#82FF83"/>
<path d="M17.7539 12.0234V17.6619L26.4373 23.3003V17.6619L17.7539 12.0234Z" fill="#F3F3F3"/>
<path d="M35.117 12.0234V17.6619L26.4336 23.3003V17.6619L35.117 12.0234Z" fill="#CFCCCF"/>
<path d="M26.4373 6.38672L17.7539 12.0251L26.4373 17.6636L35.1207 12.0251L26.4373 6.38672Z" fill="#0B65FA"/>
<path d="M17.7539 12.0234V17.6619L26.4373 23.3003V17.6619L17.7539 12.0234Z" fill="#F3F3F3"/>
<path d="M35.117 12.0234V17.6619L26.4336 23.3003V17.6619L35.117 12.0234Z" fill="#CFCCCF"/>
<path d="M26.4365 23.6891C26.3632 23.6891 26.2899 23.6698 26.2281 23.6273L17.5447 17.9889C17.4367 17.9194 17.3672 17.7959 17.3672 17.6647V12.0263C17.3672 11.8835 17.4444 11.7562 17.5679 11.6867C17.6914 11.6211 17.8419 11.625 17.9615 11.7021L26.6449 17.3406C26.753 17.41 26.8224 17.5335 26.8224 17.6647V23.3031C26.8224 23.4459 26.7453 23.5733 26.6218 23.6428C26.5639 23.6736 26.5021 23.6891 26.4365 23.6891ZM18.139 17.4563L26.0506 22.593V17.877L18.139 12.7403V17.4602V17.4563Z" fill="#231F20"/>
<path d="M26.4406 23.6891C26.3789 23.6891 26.3133 23.6736 26.2554 23.6428C26.1319 23.5772 26.0547 23.4459 26.0547 23.3031V17.6647C26.0547 17.5335 26.1203 17.4139 26.2322 17.3406L34.9156 11.7021C35.0352 11.625 35.1858 11.6211 35.3093 11.6867C35.4328 11.7523 35.5099 11.8835 35.5099 12.0263V17.6647C35.5099 17.7959 35.4443 17.9156 35.3324 17.9889L26.649 23.6273C26.5834 23.6698 26.5101 23.6891 26.4406 23.6891ZM26.8265 17.877V22.593L34.7381 17.4563V12.7364L26.8265 17.8731V17.877Z" fill="#231F20"/>
<path d="M26.4365 18.0477C26.3632 18.0477 26.2899 18.0284 26.2281 17.986L17.5447 12.3476C17.4367 12.2781 17.3672 12.1546 17.3672 12.0234C17.3672 11.8922 17.4328 11.7725 17.5447 11.6992L26.2281 6.06078C26.3555 5.97974 26.5214 5.97974 26.6488 6.06078L35.3322 11.6992C35.4402 11.7687 35.5097 11.8922 35.5097 12.0234C35.5097 12.1546 35.4441 12.2742 35.3322 12.3476L26.6488 17.986C26.5832 18.0284 26.5098 18.0477 26.4404 18.0477H26.4365ZM18.4632 12.0234L26.4365 17.2025L34.4098 12.0234L26.4365 6.84422L18.4632 12.0234Z" fill="#231F20"/>
<path d="M17.7498 12.0273L9.06641 17.6658L17.7498 23.3042L26.4332 17.6658L17.7498 12.0273Z" fill="#82FF83"/>
<path d="M9.06641 17.6641V23.3025L17.7498 28.9409V23.3025L9.06641 17.6641Z" fill="#F3F3F3"/>
<path d="M26.4295 17.6641V23.3025L17.7461 28.9409V23.3025L26.4295 17.6641Z" fill="#CFCCCF"/>
<path d="M17.7498 12.0273L9.06641 17.6658L17.7498 23.3042L26.4332 17.6658L17.7498 12.0273Z" fill="#82FF83"/>
<path d="M9.06641 17.6641V23.3025L17.7498 28.9409V23.3025L9.06641 17.6641Z" fill="#F3F3F3"/>
<path d="M26.4295 17.6641V23.3025L17.7461 28.9409V23.3025L26.4295 17.6641Z" fill="#CFCCCF"/>
<path d="M17.749 29.3234C17.6757 29.3234 17.6024 29.3041 17.5406 29.2617L8.85721 23.6233C8.74915 23.5538 8.67969 23.4303 8.67969 23.2991V17.6607C8.67969 17.5179 8.75687 17.3905 8.88037 17.3211C9.00387 17.2516 9.15438 17.2593 9.27402 17.3365L17.9574 22.9749C18.0655 23.0444 18.1349 23.1679 18.1349 23.2991V28.9375C18.1349 29.0803 18.0578 29.2077 17.9343 29.2771C17.8764 29.308 17.8146 29.3234 17.749 29.3234ZM9.45154 23.0907L17.3631 28.2274V23.5114L9.45154 18.3746V23.0945V23.0907Z" fill="#231F20"/>
<path d="M17.7453 29.3297C17.6836 29.3297 17.6179 29.3143 17.5601 29.2834C17.4366 29.2178 17.3594 29.0866 17.3594 28.9438V23.3054C17.3594 23.1741 17.425 23.0545 17.5369 22.9812L26.2203 17.3428C26.3399 17.2656 26.4904 17.2617 26.6139 17.3273C26.7374 17.3929 26.8146 17.5241 26.8146 17.6669V23.3054C26.8146 23.4366 26.749 23.5562 26.6371 23.6295L17.9537 29.268C17.8881 29.3104 17.8148 29.3297 17.7453 29.3297ZM18.1312 23.5176V28.2337L26.0428 23.097V18.377L18.1312 23.5138V23.5176Z" fill="#231F20"/>
<path d="M17.749 23.6883C17.6757 23.6883 17.6024 23.6691 17.5406 23.6266L8.85721 17.9882C8.74915 17.9187 8.67969 17.7952 8.67969 17.664C8.67969 17.5328 8.7453 17.4132 8.85721 17.3398L17.5406 11.7014C17.668 11.6204 17.8339 11.6204 17.9613 11.7014L26.6447 17.3398C26.7527 17.4093 26.8222 17.5328 26.8222 17.664C26.8222 17.7952 26.7566 17.9149 26.6447 17.9882L17.9613 23.6266C17.8957 23.6691 17.8223 23.6883 17.7529 23.6883H17.749ZM9.77572 17.664L17.749 22.8432L25.7223 17.664L17.749 12.4848L9.77572 17.664Z" fill="#231F20"/>
<path d="M9.07011 17.6641L0.386719 23.3025L9.07011 28.9409L17.7535 23.3025L9.07011 17.6641Z" fill="#82FF83"/>
<path d="M0.386719 23.3008V28.9392L9.07011 34.5776V28.9392L0.386719 23.3008Z" fill="#F3F3F3"/>
<path d="M17.7498 23.3008V28.9392L9.06641 34.5776V28.9392L17.7498 23.3008Z" fill="#CFCCCF"/>
<path d="M9.07011 17.6641L0.386719 23.3025L9.07011 28.9409L17.7535 23.3025L9.07011 17.6641Z" fill="#0B65FA"/>
<path d="M0.386719 23.3008V28.9392L9.07011 34.5776V28.9392L0.386719 23.3008Z" fill="#F3F3F3"/>
<path d="M17.7498 23.3008V28.9392L9.06641 34.5776V28.9392L17.7498 23.3008Z" fill="#CFCCCF"/>
<path d="M9.06932 34.9641C8.996 34.9641 8.92267 34.9448 8.86092 34.9023L0.177527 29.2639C0.0694671 29.1944 0 29.0709 0 28.9397V23.3013C0 23.1585 0.0771857 23.0311 0.200683 22.9617C0.32418 22.8922 0.478551 22.8999 0.59433 22.9771L9.27772 28.6155C9.38578 28.685 9.45525 28.8085 9.45525 28.9397V34.5781C9.45525 34.7209 9.37807 34.8483 9.25457 34.9177C9.19668 34.9486 9.13493 34.9641 9.06932 34.9641ZM0.771857 28.7313L8.68339 33.868V29.152L0.771857 24.0114V28.7313Z" fill="#231F20"/>
<path d="M9.06562 34.9625C9.00387 34.9625 8.93826 34.9471 8.88037 34.9162C8.75687 34.8506 8.67969 34.7194 8.67969 34.5766V28.9382C8.67969 28.807 8.7453 28.6873 8.85721 28.614L17.5406 22.9756C17.6602 22.8984 17.8108 22.8945 17.9343 22.9601C18.0578 23.0257 18.1349 23.157 18.1349 23.2998V28.9382C18.1349 29.0694 18.0693 29.189 17.9574 29.2623L9.27402 34.9008C9.20841 34.9432 9.13508 34.9625 9.06562 34.9625ZM9.45154 29.1504V33.8665L17.3631 28.7298V24.0099L9.45154 29.1466V29.1504Z" fill="#231F20"/>
<path d="M9.06932 29.3251C8.99599 29.3251 8.92267 29.3058 8.86092 29.2633L0.177527 23.6249C0.0694671 23.5554 0 23.4319 0 23.3007C0 23.1695 0.0656079 23.0499 0.177527 22.9765L8.86092 17.3381C8.98828 17.2571 9.15422 17.2571 9.28158 17.3381L17.965 22.9765C18.073 23.046 18.1425 23.1695 18.1425 23.3007C18.1425 23.4319 18.0769 23.5516 17.965 23.6249L9.28158 29.2633C9.21597 29.3058 9.14265 29.3251 9.07318 29.3251H9.06932ZM1.09604 23.3007L9.06932 28.4799L17.0426 23.3007L9.06932 18.1216L1.09604 23.3007Z" fill="#231F20"/>
<path d="M26.4412 17.6641L17.7578 23.3025L26.4412 28.9409L35.1246 23.3025L26.4412 17.6641Z" fill="#82FF83"/>
<path d="M17.7578 23.3008V28.9392L26.4412 34.5776V28.9392L17.7578 23.3008Z" fill="#F3F3F3"/>
<path d="M35.117 23.3008V28.9392L26.4336 34.5776V28.9392L35.117 23.3008Z" fill="#CFCCCF"/>
<path d="M26.4412 17.6602L17.7578 23.2986L26.4412 28.937L35.1246 23.2986L26.4412 17.6602Z" fill="#82FF83"/>
<path d="M17.7578 23.3008V28.9392L26.4412 34.5776V28.9392L17.7578 23.3008Z" fill="#F3F3F3"/>
<path d="M35.117 23.3008V28.9392L26.4336 34.5776V28.9392L35.117 23.3008Z" fill="#CFCCCF"/>
<path d="M26.4365 34.9625C26.3632 34.9625 26.2899 34.9432 26.2281 34.9008L17.5447 29.2623C17.4367 29.1929 17.3672 29.0694 17.3672 28.9382V23.2998C17.3672 23.157 17.4444 23.0296 17.5679 22.9601C17.6914 22.8945 17.8419 22.8984 17.9615 22.9756L26.6449 28.614C26.753 28.6835 26.8224 28.807 26.8224 28.9382V34.5766C26.8224 34.7194 26.7453 34.8467 26.6218 34.9162C26.5639 34.9471 26.5021 34.9625 26.4365 34.9625ZM18.139 28.7298L26.0506 33.8665V29.1504L18.139 24.0137V28.7336V28.7298Z" fill="#231F20"/>
<path d="M26.4406 34.9625C26.3789 34.9625 26.3133 34.9471 26.2554 34.9162C26.1319 34.8506 26.0547 34.7194 26.0547 34.5766V28.9382C26.0547 28.807 26.1203 28.6873 26.2322 28.614L34.9156 22.9756C35.0352 22.8984 35.1858 22.8945 35.3093 22.9601C35.4328 23.0257 35.5099 23.157 35.5099 23.2998V28.9382C35.5099 29.0694 35.4443 29.189 35.3324 29.2623L26.649 34.9008C26.5834 34.9432 26.5101 34.9625 26.4406 34.9625ZM26.8265 29.1504V33.8665L34.7381 28.7298V24.0099L26.8265 29.1466V29.1504Z" fill="#231F20"/>
<path d="M26.4365 29.3251C26.3632 29.3251 26.2899 29.3058 26.2281 29.2633L17.5447 23.6249C17.4367 23.5554 17.3672 23.4319 17.3672 23.3007C17.3672 23.1695 17.4328 23.0499 17.5447 22.9765L26.2281 17.3381C26.3555 17.2571 26.5214 17.2571 26.6488 17.3381L35.3322 22.9765C35.4402 23.046 35.5097 23.1695 35.5097 23.3007C35.5097 23.4319 35.4441 23.5516 35.3322 23.6249L26.6488 29.2633C26.5832 29.3058 26.5098 29.3251 26.4404 29.3251H26.4365ZM18.4632 23.3007L26.4365 28.4799L34.4098 23.3007L26.4365 18.1216L18.4632 23.3007Z" fill="#231F20"/>
</g>
<path d="M50.4785 15.8711H52.1838C55.5704 15.8711 57.2483 16.9874 57.238 19.244H54.889C54.9027 18.2715 53.8514 17.775 51.79 17.775H50.8723C48.6534 17.775 47.4857 18.7714 47.4857 20.7027C47.4857 22.634 48.6534 23.6305 50.8723 23.6305H51.79C53.824 23.6305 54.8753 23.0415 54.889 21.8841L50.2833 21.8567V20.2165H57.238V21.8293C57.238 24.2708 55.5327 25.531 52.1838 25.531H50.4785C46.9618 25.531 45.1641 23.8907 45.1641 20.7027C45.1641 17.5147 46.9618 15.8711 50.4785 15.8711Z" fill="white"/>
<path d="M60.8579 23.5106L59.3752 25.0584H56.6323L65.3197 15.8711H67.7098L76.4896 25.0584H73.7605L72.2367 23.5106H60.8579ZM66.5148 17.6449L62.6556 21.6615H70.4253L66.5148 17.6449Z" fill="white"/>
<path d="M77.1831 15.8711H79.4157L83.6824 21.8944L87.9456 15.8711H90.1782V25.0584H87.9456V19.3228L84.5076 24.2195L82.8537 24.2332L79.4157 19.3262V25.0618H77.1831V15.8711Z" fill="white"/>
<path d="M92.2324 15.8711H94.465V25.0584H92.2324V15.8711Z" fill="white"/>
<path d="M116.209 25.0584H114.004L98.7522 18.09V25.0584H96.5195V15.8711H98.7111L113.976 22.8669V15.8711H116.209V25.0584Z" fill="white"/>
<path d="M123.231 15.8711H124.936C128.323 15.8711 130.001 16.9874 129.99 19.244H127.641C127.655 18.2715 126.604 17.775 124.542 17.775H123.625C121.406 17.775 120.238 18.7714 120.238 20.7027C120.238 22.634 121.406 23.6305 123.625 23.6305H124.542C126.576 23.6305 127.628 23.0415 127.641 21.8841L123.036 21.8567V20.2165H129.994V21.8293C129.994 24.2708 128.289 25.531 124.94 25.531H123.234C119.718 25.531 117.92 23.8907 117.92 20.7027C117.92 17.5147 119.718 15.8711 123.234 15.8711L123.231 15.8711Z" fill="white"/>
<defs>
<clipPath id="clip0_753_297">
<rect width="35.5054" height="28.9639" fill="white" transform="translate(0 6)"/>
</clipPath>
</defs>
</svg>
